FFmpeg version SVN-r25716, Copyright (c) 2000-2010 the FFmpeg developers  built on Nov 10 2010 12:23:18 with gcc 4.1.2 20080704 (Red Hat 4.1.2-48)  configuration: --enable-libmp3lame --enable-shared --disable-mmx --arch=x86_64  libavutil     50.33. 0 / 50.33. 0  libavcore      0.12. 1 /  0.12. 1  libavcodec    52.94. 4 / 52.94. 4  libavformat   52.84. 0 / 52.84. 0  libavdevice   52. 2. 2 / 52. 2. 2  libavfilter    1.59. 0 /  1.59. 0  libswscale     0.12. 0 /  0.12. 0Seems stream 0 codec frame rate differs from container frame rate: 1200.00 (1200/1) -> 25.00 (25/1)Input #0, mov,mp4,m4a,3gp,3g2,mj2, from '/RAID10/data/converted_video_files/8052.mov':  Metadata:    major_brand     : qt      minor_version   : 537199360    compatible_brands: qt    Duration: 00:00:09.00, start: 0.000000, bitrate: 1010 kb/s    Stream #0.0(eng): Video: h264, yuv420p, 230x244, 1007 kb/s, 25 fps, 25 tbr, 600 tbn, 1200 tbc[buffer @ 0x118108c0] w:230 h:244 pixfmt:yuv420pOutput #0, flv, to '/RAID10/data/converted_video_files/8052.flv':  Metadata:    encoder         : Lavf52.84.0    Stream #0.0(eng): Video: flv, yuv420p, 230x244, q=2-31, 600 kb/s, 1k tbn, 24 tbcStream mapping:  Stream #0.0 -> #0.0Press [q] to stop encodingframe=  123 fps=  0 q=2.6 size=     443kB time=5.12 bitrate= 708.1kbits/s dup=0 drop=5    frame=  216 fps=  0 q=3.1 Lsize=     745kB time=9.00 bitrate= 677.7kbits/s dup=0 drop=9    video:741kB audio:0kB global headers:0kB muxing overhead 0.483186%